HIERARCHY
ROOT Hips
{
	OFFSET 0 0 0
	CHANNELS 6 Xposition Yposition Zposition Yrotation Xrotation Zrotation
	JOINT Spine
	{
		OFFSET -0 8.37147 -2.66841
		CHANNELS 3 Yrotation Xrotation Zrotation
		JOINT Spine1
		{
			OFFSET -0 8.81736 0
			CHANNELS 3 Yrotation Xrotation Zrotation
			JOINT Spine2
			{
				OFFSET -0 8.81736 0
				CHANNELS 3 Yrotation Xrotation Zrotation
				JOINT Spine3
				{
					OFFSET -0 8.81736 0
					CHANNELS 3 Yrotation Xrotation Zrotation
					JOINT Neck
					{
						OFFSET -0 20.2165 3.66841
						CHANNELS 3 Yrotation Xrotation Zrotation
						JOINT Head
						{
							OFFSET -0 10.4643 0
							CHANNELS 3 Yrotation Xrotation Zrotation
							End Site
							{
								OFFSET 0 15 0
							}
						}
					}
					JOINT LeftShoulder
					{
						OFFSET 1.74406 7.24 3.48811
						CHANNELS 3 Yrotation Xrotation Zrotation
						JOINT LeftArm
						{
							OFFSET 15.166 0 0
							CHANNELS 3 Yrotation Xrotation Zrotation
							JOINT LeftForeArm
							{
								OFFSET 25.1836 0 0
								CHANNELS 3 Yrotation Xrotation Zrotation
								JOINT LeftHand
								{
									OFFSET 23.8595 0 0
									CHANNELS 3 Yrotation Xrotation Zrotation
									End Site
									{
										OFFSET 15 0 0
									}
								}
							}
						}
					}
					JOINT RightShoulder
					{
						OFFSET -1.74406 7.24 3.48811
						CHANNELS 3 Yrotation Xrotation Zrotation
						JOINT RightArm
						{
							OFFSET -15.166 0 0
							CHANNELS 3 Yrotation Xrotation Zrotation
							JOINT RightForeArm
							{
								OFFSET -25.1836 0 0
								CHANNELS 3 Yrotation Xrotation Zrotation
								JOINT RightHand
								{
									OFFSET -23.8595 0 0
									CHANNELS 3 Yrotation Xrotation Zrotation
									End Site
									{
										OFFSET -15 0 0
									}
								}
							}
						}
					}
				}
			}
		}
	}
	JOINT LeftUpLeg
	{
		OFFSET 10.4643 -3.48811 2
		CHANNELS 3 Yrotation Xrotation Zrotation
		JOINT LeftLeg
		{
			OFFSET -0 -38.892 2.44168
			CHANNELS 3 Yrotation Xrotation Zrotation
			JOINT LeftFoot
			{
				OFFSET -0 -41.3956 -2.44168
				CHANNELS 3 Yrotation Xrotation Zrotation
				JOINT LeftToeBase
				{
					OFFSET -0 -6.7338 15.6965
					CHANNELS 3 Yrotation Xrotation Zrotation
					End Site
					{
						OFFSET 0 0 5
					}
				}
			}
		}
	}
	JOINT RightUpLeg
	{
		OFFSET -10.4643 -3.48811 2
		CHANNELS 3 Yrotation Xrotation Zrotation
		JOINT RightLeg
		{
			OFFSET -0 -38.892 2.44168
			CHANNELS 3 Yrotation Xrotation Zrotation
			JOINT RightFoot
			{
				OFFSET -0 -41.3956 -2.44168
				CHANNELS 3 Yrotation Xrotation Zrotation
				JOINT RightToeBase
				{
					OFFSET -0 -6.7338 15.6965
					CHANNELS 3 Yrotation Xrotation Zrotation
					End Site
					{
						OFFSET 0 0 5
					}
				}
			}
		}
	}
}
MOTION
Frames: 6
Frame Time: 0.00833333
0 93.707184 0 0 0 0 0 0 0 0 0 0 0 0 0 0 0 0 0 0 0 0 0 0 0 0 0 0 0 0 0 0 0 0 0 0 0 0 0 0 0 0 0 0 0 0 0 0 0 0 0 0 0 0 0 0 0 0 0 0 0 0 0 0 0 0 0 0 0 0 0 0
-89.212244 93.711121 -11.606414 -1.043740 -0.808596 0.361749 0.069118 0.647499 -0.749986 -0.122132 0.826812 -0.576095 -0.463060 0.913086 -0.374638 -0.609088 1.017401 -0.201665 2.599163 -3.243641 1.720977 1.010487 7.074002 -0.700827 13.097891 11.850872 0.874125 -39.475497 9.824941 -57.289283 -27.798735 4.104069 3.681492 8.438872 -1.886204 -7.621038 -10.216219 3.089155 -2.136609 41.856559 12.247964 64.099550 27.165972 7.276084 -4.208674 -14.725667 -0.760305 15.706302 7.412215 4.691397 3.332682 0.000000 0.795110 0.000000 12.338942 0.343951 -0.658077 0.000000 -2.870621 0.000000 -7.718810 3.746444 -2.482721 0.000000 0.498707 0.000000 -14.198316 0.038857 0.211585 0.000000 -3.621538 0.000000
-89.211597 93.711414 -11.610602 -1.046111 -0.810666 0.363743 0.067916 0.656192 -0.748535 -0.122921 0.825690 -0.583765 -0.471423 0.905154 -0.384397 -0.618560 1.016037 -0.202870 2.585453 -3.258851 1.717659 1.005761 7.075054 -0.675705 13.115037 11.849695 0.883054 -39.455788 9.816458 -57.280298 -27.799106 4.074095 3.676551 8.446220 -1.884143 -7.588676 -10.210899 3.086795 -2.111621 41.870598 12.275690 64.091432 27.179657 7.353947 -4.221761 -14.707521 -0.855438 15.683507 7.419397 4.689614 3.327950 0.000000 0.797861 0.000000 12.346087 0.339892 -0.672314 0.000000 -2.835933 0.000000 -7.714994 3.747727 -2.486865 0.000000 0.493969 0.000000 -14.203818 0.047394 0.228506 0.000000 -3.660581 0.000000
-89.206702 93.710950 -11.611394 -1.050669 -0.811347 0.362372 0.074257 0.643714 -0.736848 -0.116749 0.836893 -0.584995 -0.480605 0.909329 -0.392841 -0.627702 1.012302 -0.211146 2.566356 -3.282749 1.692062 0.999930 7.097138 -0.638004 13.118565 11.857399 0.872493 -39.438274 9.819982 -57.248030 -27.813404 4.084095 3.650484 8.464043 -1.937165 -7.549405 -10.217949 3.075029 -2.099608 41.862060 12.279638 64.070514 27.198387 7.311886 -4.211954 -14.716714 -0.822135 15.688019 7.405975 4.692604 3.327605 0.000000 0.799425 0.000000 12.357471 0.327915 -0.687223 0.000000 -2.836507 0.000000 -7.717667 3.746699 -2.486510 0.000000 0.495924 0.000000 -14.196965 0.048587 0.226379 0.000000 -3.667288 0.000000
-89.207098 93.711151 -11.613630 -1.053673 -0.814055 0.373588 0.074900 0.626652 -0.749236 -0.117022 0.852196 -0.586376 -0.481172 0.918766 -0.389485 -0.627083 1.015796 -0.220500 2.529250 -3.305962 1.698372 0.982636 7.083774 -0.684799 13.102816 11.849602 0.869482 -39.427687 9.819108 -57.237927 -27.787421 4.127196 3.649912 8.428387 -1.959385 -7.522779 -10.223667 3.058197 -2.100499 41.894529 12.286939 64.082688 27.195236 7.215532 -4.223525 -14.724586 -0.800653 15.647856 7.426887 4.687543 3.319192 0.000000 0.809450 0.000000 12.341323 0.331490 -0.694518 0.000000 -2.807157 0.000000 -7.710184 3.751052 -2.495116 0.000000 0.485215 0.000000 -14.202431 0.035630 0.176431 0.000000 -3.633521 0.000000
-89.201715 93.711591 -11.618410 -1.060077 -0.816678 0.353277 0.066868 0.634538 -0.728263 -0.125091 0.844823 -0.576635 -0.480980 0.921290 -0.391292 -0.627323 1.018096 -0.223800 2.522320 -3.343593 1.654187 0.982963 7.113391 -0.647506 13.101933 11.860232 0.854542 -39.415652 9.821994 -57.231463 -27.795982 4.093343 3.659887 8.424699 -1.923431 -7.533247 -10.201859 3.066437 -2.098523 41.855376 12.283935 64.051876 27.226251 7.275340 -4.212494 -14.761378 -0.869402 15.641827 7.376999 4.696956 3.328241 0.000000 0.794272 0.000000 12.396368 0.328429 -0.660604 0.000000 -2.839845 0.000000 -7.712175 3.743586 -2.481251 0.000000 0.497290 0.000000 -14.197477 0.064087 0.203334 0.000000 -3.673473 0.000000
